<svg width="34" height="32" viewBox="0 0 34 32" fill="none" xmlns="http://www.w3.org/2000/svg">
<path d="M32.8699 18.5324C32.7694 18.2618 32.6137 18.0146 32.4124 17.8059C32.211 17.5973 31.9683 17.4317 31.6994 17.3194V2.58904C31.6981 2.16798 31.528 1.76454 31.2262 1.46681C30.9244 1.16908 30.5154 1.00126 30.0886 1H12.907C12.4802 1.00126 12.0712 1.16908 11.7694 1.46681C11.4676 1.76454 11.2975 2.16798 11.2962 2.58904V17.4359C10.687 17.7091 10.1047 18.0371 9.55657 18.4158L7.87063 19.5811L7.25316 18.7125C7.17124 18.5982 7.04709 18.5203 6.90747 18.4955C6.76786 18.4708 6.62398 18.5011 6.50684 18.58L1.22886 22.2242C1.11269 22.306 1.03359 22.4294 1.00851 22.568C0.983417 22.7066 1.01433 22.8494 1.09462 22.9658L6.64107 30.7732C6.72236 30.8883 6.84658 30.9668 6.98648 30.9916C7.12639 31.0165 7.27056 30.9855 7.38739 30.9056L12.6654 27.2615C12.7813 27.1795 12.8602 27.0561 12.8853 26.9176C12.9104 26.7791 12.8796 26.6364 12.7996 26.5199L12.4936 26.0909C13.5296 25.3926 14.8024 25.1244 16.0373 25.344L16.993 25.5029C18.2004 25.7145 19.4431 25.6086 20.5958 25.1957L31.5866 21.2496C31.8518 21.1544 32.0954 21.0086 32.3035 20.8205C32.5115 20.6324 32.6799 20.4057 32.7991 20.1533C32.9183 19.901 32.9859 19.6279 32.998 19.3498C33.0102 19.0717 32.9666 18.7939 32.8699 18.5324ZM24.1824 2.05936H30.0886C30.231 2.05936 30.3676 2.11516 30.4683 2.2145C30.569 2.31383 30.6255 2.44856 30.6255 2.58904V4.17807H24.1824V2.05936ZM19.887 2.05936H23.1086V6.6093L21.879 5.39104C21.7776 5.2918 21.6406 5.23611 21.4978 5.23611C21.355 5.23611 21.218 5.2918 21.1166 5.39104L19.887 6.6093V2.05936ZM12.3701 2.58904C12.3701 2.44856 12.4266 2.31383 12.5273 2.2145C12.628 2.11516 12.7646 2.05936 12.907 2.05936H18.8132V4.17807H12.3701V2.58904ZM12.3701 5.23743H18.8132V7.88582C18.8128 7.9906 18.8443 8.09309 18.9037 8.17998C18.963 8.26687 19.0475 8.33416 19.1461 8.37313C19.2438 8.41369 19.3516 8.42477 19.4558 8.40497C19.5599 8.38518 19.6558 8.33539 19.7313 8.26189L21.4978 6.51395L23.2643 8.26189C23.3658 8.3607 23.5029 8.41591 23.6455 8.4155C23.7159 8.41733 23.7858 8.40281 23.8495 8.37313C23.9481 8.33416 24.0326 8.26687 24.092 8.17998C24.1513 8.09309 24.1828 7.9906 24.1824 7.88582V5.23743H30.6255V17.1605C30.4535 17.1749 30.2839 17.2104 30.1208 17.2664L28.2201 17.9497H24.4455C24.1622 17.7111 23.8192 17.552 23.4522 17.4889L18.0561 16.5514C16.3126 16.2472 14.521 16.3524 12.8265 16.8586L12.7298 16.8904C12.6063 16.9221 12.4882 16.9698 12.3701 17.0122V5.23743ZM7.21021 29.7351L2.2866 22.791L6.68402 19.7506L11.6076 26.6947L7.21021 29.7351ZM31.9142 19.4434C31.881 19.6266 31.7996 19.798 31.678 19.9402C31.5564 20.0825 31.399 20.1906 31.2215 20.2538L20.2307 24.1999C19.2549 24.5496 18.2029 24.6392 17.1809 24.4595L16.2198 24.3006C14.7054 24.0316 13.1445 24.3627 11.8761 25.2222L8.48809 20.4445L10.174 19.2845C11.0439 18.6784 12.0064 18.2135 13.0251 17.9073L13.1218 17.8809C14.6611 17.4202 16.2882 17.3204 17.8736 17.5895L23.2643 18.5271C23.5461 18.5783 23.7966 18.736 23.9623 18.9667C24.0563 19.103 24.1169 19.2589 24.1395 19.4222C24.167 19.5705 24.1577 19.7231 24.1126 19.8671C24.0386 20.1205 23.8718 20.3378 23.6446 20.4767C23.4174 20.6157 23.1461 20.6665 22.8831 20.6193L17.0789 19.6076L16.8963 20.6458L22.6951 21.6575C22.8206 21.6829 22.9483 21.6953 23.0764 21.6945C23.5386 21.6941 23.9886 21.5472 24.3598 21.2754C24.731 21.0036 25.0039 20.6213 25.1382 20.185L30.4859 18.2622C30.7537 18.1668 31.0488 18.1802 31.3066 18.2994C31.5643 18.4185 31.7635 18.6338 31.8605 18.8978C31.9292 19.0713 31.9478 19.2602 31.9142 19.4434Z" fill="#FFC300" stroke="#FFC300"/>
</svg>
