<svg width="29" height="29" viewBox="0 0 29 29" fill="none" xmlns="http://www.w3.org/2000/svg">
<path fill-rule="evenodd" clip-rule="evenodd" d="M28 25.3V15.85H25.3V25.3H3.7V3.7H13.15V1H3.7C2.20883 1 1 2.20883 1 3.7V25.3C1 26.7912 2.20883 28 3.7 28H25.3C26.7912 28 28 26.7912 28 25.3ZM24.1904 1.97662C23.5716 1.35292 22.7243 1 21.8404 1C20.9575 1 20.1111 1.35212 19.4888 1.97825L8.19077 13.2761C7.1812 14.1656 6.51939 15.4893 6.40438 16.9129L6.4 21.2531V22.6031H11.9817C13.513 22.4981 14.8497 21.8298 15.7926 20.7421L27.0267 9.51288C27.6499 8.88962 28.0001 8.04429 28.0001 7.16286C28.0001 6.28143 27.6499 5.4361 27.0267 4.81283L24.1904 1.97662ZM11.8864 19.9065C12.6076 19.8555 13.2789 19.5198 13.818 18.9032L22.0016 10.7195L18.2834 7.00102L10.0397 15.2419C9.49278 15.7257 9.15442 16.4025 9.1 17.0216V19.904L11.8864 19.9065ZM20.1929 5.09214L23.9108 8.81034L25.1175 7.60369C25.2344 7.48677 25.3001 7.3282 25.3001 7.16286C25.3001 6.99751 25.2344 6.83894 25.1175 6.72202L22.2775 3.88206C22.1619 3.76554 22.0046 3.7 21.8404 3.7C21.6763 3.7 21.5189 3.76554 21.4033 3.88206L20.1929 5.09214Z" fill="white"/>
<path d="M28 15.85H28.25V15.6H28V15.85ZM25.3 15.85V15.6H25.05V15.85H25.3ZM25.3 25.3V25.55H25.55V25.3H25.3ZM3.7 25.3H3.45V25.55H3.7V25.3ZM3.7 3.7V3.45H3.45V3.7H3.7ZM13.15 3.7V3.95H13.4V3.7H13.15ZM13.15 1H13.4V0.75H13.15V1ZM24.1904 1.97662L24.013 2.1527L24.0137 2.1534L24.1904 1.97662ZM19.4888 1.97825L19.6656 2.15503L19.6661 2.15449L19.4888 1.97825ZM8.19077 13.2761L8.35604 13.4637L8.36197 13.4585L8.36755 13.4529L8.19077 13.2761ZM6.40438 16.9129L6.1552 16.8927L6.15439 16.9026L6.15438 16.9126L6.40438 16.9129ZM6.4 21.2531L6.15 21.2529V21.2531H6.4ZM6.4 22.6031H6.15V22.8531H6.4V22.6031ZM11.9817 22.6031V22.8531H11.9903L11.9988 22.8526L11.9817 22.6031ZM15.7926 20.7421L15.6159 20.5653L15.6096 20.5716L15.6037 20.5783L15.7926 20.7421ZM27.0267 9.51288L27.2034 9.68969L27.2034 9.68966L27.0267 9.51288ZM27.0267 4.81283L26.8499 4.98961V4.98961L27.0267 4.81283ZM13.818 18.9032L13.6412 18.7264L13.6353 18.7323L13.6298 18.7386L13.818 18.9032ZM11.8864 19.9065L11.8861 20.1565L11.8951 20.1565L11.904 20.1559L11.8864 19.9065ZM22.0016 10.7195L22.1784 10.8963L22.3552 10.7195L22.1784 10.5428L22.0016 10.7195ZM18.2834 7.00102L18.4601 6.82424L18.2834 6.64749L18.1066 6.82421L18.2834 7.00102ZM10.0397 15.2419L10.2054 15.4292L10.2111 15.4242L10.2165 15.4188L10.0397 15.2419ZM9.1 17.0216L8.85096 16.9997L8.85 17.0106V17.0216H9.1ZM9.1 19.904H8.85V20.1537L9.09977 20.154L9.1 19.904ZM20.1929 5.09214L20.0161 4.91533L19.8393 5.0921L20.0161 5.26891L20.1929 5.09214ZM23.9108 8.81034L23.734 8.98711L23.9108 9.1639L24.0876 8.98712L23.9108 8.81034ZM25.1175 7.60369L24.9407 7.42691V7.42691L25.1175 7.60369ZM25.1175 6.72202L24.9407 6.8988L25.1175 6.72202ZM22.2775 3.88206L22.1 4.05814L22.1007 4.05883L22.2775 3.88206ZM21.4033 3.88206L21.5801 4.05886L21.5808 4.05814L21.4033 3.88206ZM27.75 15.85V25.3H28.25V15.85H27.75ZM25.3 16.1H28V15.6H25.3V16.1ZM25.55 25.3V15.85H25.05V25.3H25.55ZM3.7 25.55H25.3V25.05H3.7V25.55ZM3.45 3.7V25.3H3.95V3.7H3.45ZM13.15 3.45H3.7V3.95H13.15V3.45ZM12.9 1V3.7H13.4V1H12.9ZM3.7 1.25H13.15V0.75H3.7V1.25ZM1.25 3.7C1.25 2.3469 2.3469 1.25 3.7 1.25V0.75C2.07076 0.75 0.75 2.07076 0.75 3.7H1.25ZM1.25 25.3V3.7H0.75V25.3H1.25ZM3.7 27.75C2.3469 27.75 1.25 26.6531 1.25 25.3H0.75C0.75 26.9292 2.07076 28.25 3.7 28.25V27.75ZM25.3 27.75H3.7V28.25H25.3V27.75ZM27.75 25.3C27.75 26.6531 26.6531 27.75 25.3 27.75V28.25C26.9292 28.25 28.25 26.9292 28.25 25.3H27.75ZM21.8404 1.25C22.6579 1.25 23.4412 1.57646 24.013 2.1527L24.3679 1.80054C23.702 1.12938 22.7908 0.75 21.8404 0.75V1.25ZM19.6661 2.15449C20.2415 1.57557 21.0241 1.25 21.8404 1.25V0.75C20.891 0.75 19.9807 1.12867 19.3115 1.80201L19.6661 2.15449ZM8.36755 13.4529L19.6655 2.15503L19.312 1.80147L8.01399 13.0993L8.36755 13.4529ZM6.65357 16.933C6.76354 15.5718 7.39672 14.309 8.35604 13.4637L8.0255 13.0885C6.96568 14.0223 6.27524 15.4068 6.1552 16.8927L6.65357 16.933ZM6.65 21.2534L6.65438 16.9131L6.15438 16.9126L6.15 21.2529L6.65 21.2534ZM6.65 22.6031V21.2531H6.15V22.6031H6.65ZM11.9817 22.3531H6.4V22.8531H11.9817V22.3531ZM15.6037 20.5783C14.7057 21.6142 13.4316 22.2531 11.9646 22.3537L11.9988 22.8526C13.5944 22.7431 14.9936 22.0454 15.9815 20.9058L15.6037 20.5783ZM26.8499 9.33606L15.6159 20.5653L15.9694 20.9189L27.2034 9.68969L26.8499 9.33606ZM27.7501 7.16286C27.7501 7.97798 27.4263 8.75972 26.8499 9.3361L27.2034 9.68966C27.8736 9.01951 28.2501 8.11059 28.2501 7.16286H27.7501ZM26.8499 4.98961C27.4263 5.56599 27.7501 6.34773 27.7501 7.16286H28.2501C28.2501 6.21512 27.8736 5.30621 27.2034 4.63606L26.8499 4.98961ZM24.0137 2.1534L26.8499 4.98961L27.2034 4.63606L24.3672 1.79984L24.0137 2.1534ZM13.6298 18.7386C13.1308 19.3093 12.5193 19.6111 11.8687 19.6571L11.904 20.1559C12.6959 20.0998 13.427 19.7303 14.0062 19.0677L13.6298 18.7386ZM21.8249 10.5428L13.6412 18.7264L13.9947 19.08L22.1784 10.8963L21.8249 10.5428ZM22.1784 10.5428L18.4601 6.82424L18.1066 7.17779L21.8249 10.8963L22.1784 10.5428ZM10.2165 15.4188L18.4601 7.17782L18.1066 6.82421L9.86299 15.0651L10.2165 15.4188ZM9.34904 17.0435C9.39746 16.4926 9.70292 15.8736 10.2054 15.4292L9.87411 15.0547C9.28265 15.5778 8.91137 16.3124 8.85096 16.9997L9.34904 17.0435ZM9.35 19.904V17.0216H8.85V19.904H9.35ZM11.8866 19.6565L9.10023 19.654L9.09977 20.154L11.8861 20.1565L11.8866 19.6565ZM20.0161 5.26891L23.734 8.98711L24.0876 8.63357L20.3696 4.91537L20.0161 5.26891ZM24.9407 7.42691L23.734 8.63357L24.0876 8.98712L25.2942 7.78047L24.9407 7.42691ZM25.0501 7.16286C25.0501 7.2619 25.0107 7.35688 24.9407 7.42691L25.2942 7.78047C25.458 7.61667 25.5501 7.39451 25.5501 7.16286H25.0501ZM24.9407 6.8988C25.0107 6.96883 25.0501 7.06382 25.0501 7.16286H25.5501C25.5501 6.93121 25.458 6.70905 25.2942 6.54525L24.9407 6.8988ZM22.1007 4.05883L24.9407 6.8988L25.2942 6.54525L22.4543 3.70528L22.1007 4.05883ZM21.8404 3.95C21.9379 3.95 22.0314 3.98893 22.1 4.05814L22.455 3.70597C22.2924 3.54215 22.0712 3.45 21.8404 3.45V3.95ZM21.5808 4.05814C21.6495 3.98893 21.7429 3.95 21.8404 3.95V3.45C21.6096 3.45 21.3884 3.54215 21.2259 3.70597L21.5808 4.05814ZM20.3696 5.26894L21.5801 4.05886L21.2266 3.70525L20.0161 4.91533L20.3696 5.26894Z" fill="#056DB8"/>
</svg>
