<svg width="216" height="32" viewBox="0 0 216 32" fill="none" xmlns="http://www.w3.org/2000/svg">
<path d="M9.48644 31V8.782H11.5024C12.5944 8.782 13.2664 9.076 13.2664 10.588C13.2664 12.058 12.7204 12.52 11.5024 12.52H10.8304V19.828H12.7204C13.8544 19.828 14.4844 20.122 14.4844 21.634C14.4844 23.104 13.9384 23.524 12.7204 23.524H10.8304V31C11.4184 31.042 12.0064 31.084 12.5944 31.084C18.6844 31.084 22.2544 27.64 22.2544 22.516C22.2544 19.198 20.7424 16.552 17.8864 14.914C20.0284 13.192 21.0364 11.176 21.0364 8.656C21.0364 3.448 17.8864 1.054 11.5444 1.054H0.540438V31H9.48644ZM24.8538 1.054V17.014C24.8538 17.35 24.8538 17.686 24.8538 18.022C24.8538 22.264 24.9798 25.624 27.9618 28.396C29.9358 30.244 32.4138 31 35.6478 31H37.6638V22.306C37.3698 22.348 37.0758 22.348 36.8238 22.348C34.7658 22.348 33.7998 21.172 33.7998 18.736V1.054H24.8538ZM57.0347 31V22.264H50.4827C49.3067 22.264 48.7607 21.886 48.7607 20.752C48.7607 19.618 49.3487 19.366 50.4827 19.366H56.6567V12.688H51.3227C50.1467 12.688 49.5587 12.31 49.5587 11.176C49.5587 10.042 50.1887 9.79 51.3227 9.79H57.0347V1.054H51.2807C47.8787 1.054 45.3167 1.516 43.3427 3.154C40.3607 5.59 40.2347 8.236 40.2347 11.722V22.936C40.2347 25.582 41.7887 28.228 44.6027 29.782C46.7027 30.916 48.7187 31 50.8187 31C51.1967 31 51.6167 31 51.9947 31H57.0347ZM77.0503 31V22.264H70.4983C69.3223 22.264 68.7763 21.886 68.7763 20.752C68.7763 19.618 69.3643 19.366 70.4983 19.366H76.6723V12.688H71.3383C70.1623 12.688 69.5743 12.31 69.5743 11.176C69.5743 10.042 70.2043 9.79 71.3383 9.79H77.0503V1.054H71.2963C67.8943 1.054 65.3323 1.516 63.3583 3.154C60.3763 5.59 60.2503 8.236 60.2503 11.722V22.936C60.2503 25.582 61.8043 28.228 64.6183 29.782C66.7183 30.916 68.7343 31 70.8343 31C71.2123 31 71.6323 31 72.0103 31H77.0503ZM80.434 31H89.38V12.772C89.38 10 89.842 8.488 91.858 8.488C93.202 8.488 94.336 9.58 94.336 10.924C94.336 12.352 93.286 13.402 91.69 13.402C91.522 13.402 91.312 13.402 91.102 13.36V20.794C91.732 20.836 92.236 20.836 92.656 20.836C98.494 20.836 102.82 17.056 102.82 11.386C102.82 5.296 98.032 0.465998 91.69 0.465998C87.154 0.465998 83.5 2.65 81.736 6.262C80.56 8.656 80.434 10.756 80.434 12.856C80.434 13.318 80.434 13.822 80.434 14.284V31ZM121.757 31V22.264H115.205C114.029 22.264 113.483 21.886 113.483 20.752C113.483 19.618 114.071 19.366 115.205 19.366H121.379V12.688H116.045C114.869 12.688 114.281 12.31 114.281 11.176C114.281 10.042 114.911 9.79 116.045 9.79H121.757V1.054H116.003C112.601 1.054 110.039 1.516 108.065 3.154C105.083 5.59 104.957 8.236 104.957 11.722V22.936C104.957 25.582 106.511 28.228 109.325 29.782C111.425 30.916 113.441 31 115.541 31C115.919 31 116.339 31 116.717 31H121.757ZM135.683 13.696V21.592L139.757 31H149.165L143.957 18.904C146.771 16.72 148.157 14.284 148.157 11.176C148.157 7.984 146.687 5.044 144.083 3.112C141.353 1.096 138.959 1.054 136.313 1.054H125.351V31H134.297V9.622H136.649C138.203 9.622 139.085 9.916 139.085 11.596C139.085 13.234 138.245 13.696 136.649 13.696H135.683Z" fill="white"/>
<path d="M150.061 31.084C151.279 31.42 152.371 31.63 153.505 31.63C159.175 31.63 163.879 27.388 163.879 21.256C163.879 19.072 163.249 17.014 162.031 14.914C161.359 13.738 160.687 12.814 160.687 11.68C160.687 10.336 161.611 9.412 162.955 9.412C163.795 9.412 164.551 9.664 165.433 10.042V1.39C163.837 0.801998 162.367 0.465998 160.855 0.465998C155.059 0.465998 150.523 5.464 150.523 10.798C150.523 13.822 151.657 15.502 152.791 17.35C153.379 18.316 154.051 19.24 154.051 20.542C154.051 21.928 153.169 22.768 151.699 22.768C151.237 22.768 150.691 22.684 150.061 22.558V31.084ZM184.388 31V22.264H177.836C176.66 22.264 176.114 21.886 176.114 20.752C176.114 19.618 176.702 19.366 177.836 19.366H184.01V12.688H178.676C177.5 12.688 176.912 12.31 176.912 11.176C176.912 10.042 177.542 9.79 178.676 9.79H184.388V1.054H178.634C175.232 1.054 172.67 1.516 170.696 3.154C167.714 5.59 167.588 8.236 167.588 11.722V22.936C167.588 25.582 169.142 28.228 171.956 29.782C174.056 30.916 176.072 31 178.172 31C178.55 31 178.97 31 179.348 31H184.388ZM187.604 1.054V17.014C187.604 17.35 187.604 17.686 187.604 18.022C187.604 22.264 187.73 25.624 190.712 28.396C192.686 30.244 195.164 31 198.398 31H200.414V22.306C200.12 22.348 199.826 22.348 199.574 22.348C197.516 22.348 196.55 21.172 196.55 18.736V1.054H187.604ZM202.985 1.054V17.014C202.985 17.35 202.985 17.686 202.985 18.022C202.985 22.264 203.111 25.624 206.093 28.396C208.067 30.244 210.545 31 213.779 31H215.795V22.306C215.501 22.348 215.207 22.348 214.955 22.348C212.897 22.348 211.931 21.172 211.931 18.736V1.054H202.985Z" fill="#FFC300"/>
</svg>
