<svg width="32" height="37" viewBox="0 0 32 37" fill="none" xmlns="http://www.w3.org/2000/svg">
<path d="M30.1635 15.3828C30.9044 14.3194 30.7676 12.9358 29.8307 12.0181C29.4178 11.6136 29.2452 11.0453 29.369 10.4979C29.6499 9.25549 28.9888 8.01162 27.7612 7.47298C27.2202 7.23558 26.8402 6.76405 26.7445 6.21166C26.5274 4.95814 25.4312 4.02201 24.0789 3.93512C23.483 3.8968 22.9467 3.58578 22.6445 3.10304C21.9586 2.00777 20.5759 1.5058 19.2811 1.88236C18.7106 2.04834 18.0907 1.93969 17.6227 1.59194C16.5608 0.802688 15.0776 0.802688 14.0158 1.59194C13.5479 1.93983 12.9278 2.04834 12.3574 1.88236C11.0629 1.50573 9.67984 2.0077 8.99404 3.10304C8.69177 3.58578 8.1556 3.8968 7.55962 3.93512C6.20728 4.02201 5.11121 4.95821 4.89402 6.21166C4.79835 6.76405 4.41824 7.23558 3.87732 7.47298C2.64987 8.01169 1.98874 9.25556 2.26954 10.4979C2.39332 11.0453 2.22068 11.6137 1.80785 12.0181C0.871048 12.9359 0.73412 14.3195 1.47506 15.3829C1.80157 15.8515 1.85977 16.4399 1.63069 16.9567C1.11094 18.1295 1.51691 19.466 2.61773 20.2069C3.10293 20.5334 3.38402 21.0623 3.3697 21.6218C3.33735 22.8912 4.23122 24.0001 5.54339 24.3184C5.93073 24.4123 6.26724 24.6223 6.50838 24.9087L3.49057 31.7341C3.06766 32.6906 4.02484 33.6756 5.08031 33.372L8.38425 32.4221C8.4808 32.3946 8.58493 32.435 8.63218 32.5184L10.2514 35.3787C10.7694 36.2937 12.1895 36.2291 12.6118 35.2737L15.7572 28.1597C15.7985 28.1584 15.8398 28.1584 15.881 28.1597L19.0264 35.2737C19.4496 36.2306 20.8696 36.2924 21.3869 35.3788L23.0062 32.5184C23.0533 32.4349 23.1575 32.3945 23.2541 32.4222L26.558 33.3721C27.614 33.6758 28.5705 32.6901 28.1478 31.7341L25.1299 24.9087C25.371 24.6224 25.7075 24.4124 26.0949 24.3185C27.4071 24.0002 28.3008 22.8914 28.2686 21.6218C28.2543 21.0624 28.5354 20.5335 29.0206 20.207C30.1215 19.4661 30.5273 18.1296 30.0076 16.9568C29.7789 16.4397 29.8371 15.8513 30.1635 15.3828ZM11.6 34.8809C11.5313 35.0363 11.303 35.0458 11.2193 34.8978L9.60003 32.0375C9.30711 31.5201 8.66074 31.2694 8.06315 31.4411L4.75921 32.391C4.58781 32.4401 4.43409 32.2819 4.50274 32.1267L7.18009 26.071C7.78418 26.8462 8.79401 27.2783 9.85708 27.162C10.4504 27.0972 11.0385 27.3105 11.4303 27.7329C11.9986 28.3459 12.7995 28.6713 13.6166 28.6712C13.8751 28.6712 14.1351 28.6374 14.3899 28.5711L11.6 34.8809ZM26.8795 32.3909L23.5756 31.441C22.978 31.2693 22.3315 31.5201 22.0387 32.0374L20.4194 34.8978C20.3358 35.0456 20.1072 35.036 20.0386 34.8808L17.2493 28.5722C18.3096 28.8479 19.4604 28.5394 20.2085 27.7328C20.6002 27.3103 21.1881 27.0968 21.7816 27.1618C22.8457 27.2783 23.8549 26.8461 24.4586 26.0709L27.1361 32.1264C27.2049 32.2823 27.0503 32.4398 26.8795 32.3909ZM29.2463 14.8219C28.7218 15.5747 28.6284 16.5198 28.9963 17.3501C29.3198 18.0801 29.0672 18.9121 28.3818 19.3733C27.6025 19.8978 27.1509 20.7475 27.1738 21.6461C27.194 22.4365 26.6375 23.1268 25.8206 23.3248C25.0565 23.5102 24.4149 23.9761 24.0301 24.6061C24.0291 24.608 24.028 24.6098 24.0269 24.6115C23.9454 24.7458 23.8747 24.8872 23.8178 25.0353C23.5319 25.7791 22.7473 26.2349 21.9088 26.1428C20.9558 26.0384 20.0109 26.3813 19.3816 27.0599C18.8283 27.6567 17.9206 27.8156 17.1744 27.4465C16.9207 27.3209 16.6519 27.2337 16.3775 27.1833C16.3752 27.1828 16.3729 27.1823 16.3707 27.1819C16.0061 27.1158 15.6315 27.1158 15.2669 27.1822C15.2656 27.1825 15.2644 27.1828 15.2631 27.183C14.988 27.2334 14.7187 27.3207 14.4644 27.4465C13.7182 27.8157 12.8106 27.6567 12.2572 27.0599C11.7024 26.4617 10.9025 26.1244 10.0677 26.1244C9.95567 26.1244 9.84284 26.1304 9.73001 26.1428C8.89224 26.2347 8.10682 25.7792 7.82091 25.0354C7.76403 24.8874 7.69348 24.7463 7.61198 24.612C7.61074 24.6098 7.6095 24.6078 7.60826 24.6056C7.2234 23.9758 6.58199 23.5101 5.81812 23.3248C5.00123 23.1267 4.44482 22.4365 4.46498 21.6462C4.48791 20.7475 4.0363 19.8979 3.25695 19.3733C2.57165 18.9121 2.3189 18.0801 2.64249 17.35C3.01041 16.5197 2.91693 15.5746 2.39244 14.8218C1.93127 14.1599 2.01642 13.2985 2.5997 12.7273C3.26286 12.0776 3.54015 11.1646 3.34137 10.2852C3.16654 9.51185 3.57813 8.73751 4.34222 8.40214C5.21118 8.02079 5.8217 7.26335 5.97549 6.376C6.11067 5.59564 6.79304 5.01288 7.63484 4.95883C8.59216 4.89732 9.4536 4.39768 9.93909 3.62218C10.3661 2.94035 11.2272 2.62796 12.0328 2.86235C12.9492 3.12897 13.9451 2.95458 14.6969 2.39582C15.3578 1.90446 16.2811 1.90446 16.9423 2.39582C17.694 2.95451 18.6897 3.12904 19.6063 2.86235C20.4121 2.62789 21.2731 2.94042 21.7 3.62218C22.1855 4.39761 23.0469 4.89725 24.0042 4.95883C24.846 5.01294 25.5284 5.59571 25.6636 6.376C25.8174 7.26335 26.428 8.02079 27.2969 8.40221C28.061 8.73751 28.4725 9.51185 28.2977 10.2852C28.0989 11.1646 28.3761 12.0776 29.0394 12.7273C29.6224 13.2985 29.7075 14.1599 29.2463 14.8219Z" fill="#9B9B9B" stroke="#9B9B9B" stroke-width="0.8"/>
<path d="M21.3525 8.00586H10.3503C9.19995 8.00586 8.26404 9.03726 8.26404 10.3054V17.7269C8.26404 18.9922 9.19588 20.0219 10.3429 20.0264V23.3942L14.7338 20.0264H21.3525C22.5028 20.0264 23.4387 18.9948 23.4387 17.7269V10.3054C23.4387 9.03726 22.5028 8.00586 21.3525 8.00586ZM22.5496 17.7269C22.5496 18.4544 22.0126 19.0464 21.3525 19.0464H14.4549L11.232 21.5184V19.0464H10.3503C9.69018 19.0464 9.15318 18.4544 9.15318 17.7269V10.3054C9.15318 9.57771 9.69018 8.98591 10.3503 8.98591H21.3525C22.0126 8.98591 22.5496 9.57771 22.5496 10.3054V17.7269Z" fill="#9B9B9B" stroke="#9B9B9B" stroke-width="0.8"/>
<path d="M12.3103 13.5017H19.3918V14.6009H12.3103V13.5017Z" fill="#9B9B9B" stroke="#9B9B9B" stroke-width="0.4"/>
<path d="M12.3103 11.0832H19.3918V12.1824H12.3103V11.0832Z" fill="#9B9B9B" stroke="#9B9B9B" stroke-width="0.4"/>
<path d="M12.3103 15.7001H19.3918V16.7993H12.3103V15.7001Z" fill="#9B9B9B" stroke="#9B9B9B" stroke-width="0.4"/>
</svg>
